<svg id="Layer_1" data-name="Layer 1" xmlns="http://www.w3.org/2000/svg" xmlns:xlink="http://www.w3.org/1999/xlink" viewBox="0 0 125.71 80.25">
  <defs>
    <style>
      .cls-1 {
        fill: #004ad7;
      }

      .cls-2 {
        isolation: isolate;
        opacity: 0.3;
      }

      .cls-3 {
        clip-path: url(#clip-path);
      }

      .cls-4 {
        clip-path: url(#clip-path-2);
      }

      .cls-5 {
        fill: #004ad7;
      }

      .cls-6 {
        clip-path: url(#clip-path-3);
      }
    </style>
    <clipPath id="clip-path" transform="translate(-234.42 -380.65)">
      <rect class="cls-1" x="279.74" y="380.52" width="80.64" height="80.64" />
    </clipPath>
    <clipPath id="clip-path-2" transform="translate(-234.42 -380.65)">
      <rect class="cls-1" x="279.88" y="380.65" width="80.25" height="80.25" />
    </clipPath>
    <clipPath id="clip-path-3" transform="translate(-234.42 -380.65)">
      <rect class="cls-1" x="234.42" y="380.65" width="80.25" height="80.25" />
    </clipPath>
  </defs>
  <g class="cls-2">
    <g class="cls-3">
      <g class="cls-4">
        <path class="cls-5" d="M320,384.63a36.15,36.15,0,1,0,36.15,36.15A36.2,36.2,0,0,0,320,384.63Zm0,76.27a40.13,40.13,0,1,1,40.13-40.12A40.17,40.17,0,0,1,320,460.9Z" transform="translate(-234.42 -380.65)" />
        <path class="cls-5" d="M320,395.49a25.29,25.29,0,1,0,25.29,25.29A25.33,25.33,0,0,0,320,395.49ZM320,450a29.26,29.26,0,1,1,29.26-29.26A29.29,29.29,0,0,1,320,450Z" transform="translate(-234.42 -380.65)" />
        <path class="cls-5" d="M320,406.05a14.73,14.73,0,1,0,14.74,14.73A14.75,14.75,0,0,0,320,406.05Zm0,33.44a18.71,18.71,0,1,1,18.71-18.71A18.74,18.74,0,0,1,320,439.49Z" transform="translate(-234.42 -380.65)" />
        <path class="cls-5" d="M324.65,420.38a4.75,4.75,0,0,1-9.5,0c-.33-6.13,9.17-6.09,9.5,0,.13,2.39,3.85,2.4,3.72,0a8.66,8.66,0,0,0-8.47-8.47c-4.78-.26-8.23,4.07-8.47,8.47-.26,4.78,4.07,8.23,8.47,8.47,4.78.26,8.24-4.07,8.47-8.47C328.5,418,324.78,418,324.65,420.38Z" transform="translate(-234.42 -380.65)" />
      </g>
    </g>
  </g>
  <g class="cls-6">
    <path class="cls-5" d="M274.54,384.63a36.15,36.15,0,1,0,36.15,36.15A36.2,36.2,0,0,0,274.54,384.63Zm0,76.27a40.13,40.13,0,1,1,40.13-40.12A40.17,40.17,0,0,1,274.54,460.9Z" transform="translate(-234.42 -380.65)" />
    <path class="cls-5" d="M274.54,395.49a25.29,25.29,0,1,0,25.29,25.29A25.33,25.33,0,0,0,274.54,395.49Zm0,54.55a29.26,29.26,0,1,1,29.26-29.26A29.29,29.29,0,0,1,274.54,450Z" transform="translate(-234.42 -380.65)" />
    <path class="cls-5" d="M274.54,406.05a14.73,14.73,0,1,0,14.74,14.73A14.75,14.75,0,0,0,274.54,406.05Zm0,33.44a18.71,18.71,0,1,1,18.71-18.71A18.74,18.74,0,0,1,274.54,439.49Z" transform="translate(-234.42 -380.65)" />
    <path class="cls-5" d="M279.19,420.38a4.75,4.75,0,0,1-9.5,0c-.33-6.13,9.17-6.09,9.5,0,.13,2.39,3.85,2.4,3.72,0a8.66,8.66,0,0,0-8.47-8.47c-4.78-.26-8.23,4.07-8.47,8.47-.26,4.78,4.07,8.23,8.47,8.47,4.78.26,8.24-4.07,8.47-8.47C283,418,279.32,418,279.19,420.38Z" transform="translate(-234.42 -380.65)" />
  </g>
</svg>